<svg xmlns="http://www.w3.org/2000/svg" version="1.1" xmlns:xlink="http://www.w3.org/1999/xlink" xmlns:svgjs="http://svgjs.dev/svgjs" width="1000" height="1000" viewBox="0 0 1000 1000"><rect width="1000" height="1000" fill="#ffffff"></rect><g transform="matrix(0.22392834293026231,0,0,0.22392834293026231,387.34717581866323,150.28340080971657)"><svg viewBox="0 0 79 247" data-background-color="#001f3f" preserveAspectRatio="xMidYMid meet" height="3126" width="1000" xmlns="http://www.w3.org/2000/svg" xmlns:xlink="http://www.w3.org/1999/xlink"><g id="tight-bounds" transform="matrix(1,0,0,1,0.24295125848658472,-0.09999999999999432)"><svg viewBox="0 0 78.51409510109298 247.2" height="247.2" width="78.51409510109298"><g><svg></svg></g><g><svg viewBox="0 0 78.51409510109298 247.2" height="247.2" width="78.51409510109298"><g transform="matrix(1,0,0,1,0,47.215199999999996)"><svg viewBox="0 0 78.51409510109298 152.7696" height="152.7696" width="78.51409510109298"><g><svg viewBox="0 0 78.51409510109298 152.7696" height="152.7696" width="78.51409510109298"><g><svg viewBox="0 0 187.202295648 364.25077291413095" height="152.7696" width="78.51409510109298"><g transform="matrix(1,0,0,1,0,151.53337164103027)"><svg viewBox="0 0 187.202295648 212.71740127310068" height="212.71740127310068" width="187.202295648"><g id="textblocktransform"><svg viewBox="0 0 187.202295648 212.71740127310068" height="212.71740127310068" width="187.202295648" id="textblock"><g><svg viewBox="0 0 187.202295648 151.825483872" height="151.825483872" width="187.202295648"><g transform="matrix(1,0,0,1,0,0)"><svg width="187.202295648" viewBox="-15.479999542236328 -46.2400016784668 74.41999816894531 60.35000228881836" height="151.825483872" data-palette-color="#ffffff"><path d="M58.94 2L58.94 2Q58.84 2.98 58.25 3.54 57.67 4.1 56.74 4.1L56.74 4.1Q56.25 4.1 55.81 3.96L55.81 3.96Q54.88 4.69 53.61 5.08 52.34 5.47 51.22 5.86L51.22 5.86Q49.85 5.81 48.54 5.62 47.22 5.42 45.8 5.52L45.8 5.52Q45.31 5.18 44.78 5.08 44.24 4.98 43.68 4.96 43.12 4.93 42.6 4.79 42.09 4.64 41.6 4.1L41.6 4.1 39.16 4.1Q38.82 4.1 38.16 3.78 37.5 3.47 36.69 3.13 35.89 2.78 34.99 2.49 34.08 2.2 33.3 2.2L33.3 2.2 33.01 2.2Q32.47 1.76 31.76 1.54 31.05 1.32 30.32 1.15 29.59 0.98 28.91 0.78 28.22 0.59 27.73 0.24L27.73 0.24Q27.25-0.1 26.61-0.46 25.98-0.83 25.29-0.78L25.29-0.78Q24.37-1.32 23.36-1.71 22.36-2.1 21.34-2.44L21.34-2.44 19.34-3.17Q18.36-3.56 17.38-4.1L17.38-4.1Q17.24-4.05 17.04-4.1 16.85-4.15 16.7-4.15L16.7-4.15Q16.41-4.15 16.36-3.96L16.36-3.96Q16.02-4.3 15.6-4.54 15.19-4.79 14.79-5.13L14.79-5.13Q14.6-5.08 14.43-5.05 14.26-5.03 14.01-5.03L14.01-5.03Q13.57-5.03 13.16-5.13 12.74-5.22 12.35-5.37L12.35-5.37Q11.91-4.39 11.77-3.17 11.62-1.95 11.55-0.66 11.47 0.63 11.38 1.93 11.28 3.22 10.94 4.3L10.94 4.3Q11.04 4.69 11.04 5.08L11.04 5.08 11.04 5.91Q11.04 6.74 11.28 7.23L11.28 7.23Q11.18 7.67 11.11 8.06 11.04 8.45 10.94 8.84L10.94 8.84Q10.99 9.38 11.01 9.84 11.04 10.3 11.04 10.84L11.04 10.84 11.04 11.67Q11.04 12.11 10.94 12.55L10.94 12.55Q10.45 12.84 9.96 13.11 9.47 13.38 8.98 13.77L8.98 13.77Q8.64 13.13 7.81 13.04L7.81 13.04Q7.62 13.28 7.54 13.7 7.47 14.11 7.08 14.11L7.08 14.11Q6.4 13.57 5.96 13.23 5.52 12.89 4.98 12.21L4.98 12.21Q4.93 12.11 4.93 11.96L4.93 11.96Q4.93 11.72 5.03 11.52 5.13 11.33 5.13 11.13L5.13 11.13Q5.13 10.55 4.98 10.11L4.98 10.11Q4.88 9.47 4.83 8.86 4.79 8.25 4.79 7.67L4.79 7.67Q4.79 6.84 4.91 6.05 5.03 5.27 5.37 4.44L5.37 4.44Q5.91 3.03 6.13 1.46 6.35-0.1 6.45-1.68 6.54-3.27 6.57-4.88 6.59-6.49 6.74-7.96L6.74-7.96Q6.4-8.74 5.93-9.2 5.47-9.67 5.47-10.69L5.47-10.69Q5.47-11.62 6.05-12.13 6.64-12.65 7.08-13.38L7.08-13.38Q6.98-13.67 7.23-13.77L7.23-13.77 7.81-18.9Q7.86-19.43 7.98-20.07 8.11-20.7 8.15-21.24L8.15-21.24Q8.25-22.36 8.25-23.44 8.25-24.51 8.35-25.59L8.35-25.59Q8.59-27.98 8.81-30.32 9.03-32.67 9.03-35.01L9.03-35.01Q9.03-36.13 8.96-37.26 8.89-38.38 8.64-39.5L8.64-39.5Q7.81-39.26 6.81-38.99 5.81-38.72 5.13-38.09L5.13-38.09 4.74-38.09Q3.47-38.09 2.37-37.6 1.27-37.11 0.15-36.67L0.15-36.67Q-0.34-36.43-0.83-36.35-1.32-36.28-1.86-36.13L-1.86-36.13Q-2.1-36.08-2.39-35.84-2.69-35.6-2.93-35.5L-2.93-35.5-3.76-35.3Q-4.1-35.21-4.05-34.86-4-34.52-4.3-34.42L-4.3-34.42Q-4.54-34.18-4.98-34.2-5.42-34.23-5.66-34.23L-5.66-34.23-5.86-34.23Q-7.08-33.35-8.23-32.74-9.38-32.13-10.94-31.93L-10.94-31.93-12.01-31.25Q-12.55-30.91-13.23-30.91L-13.23-30.91Q-13.77-30.91-14.11-31.1L-14.11-31.1Q-14.5-31.69-14.72-32.42-14.94-33.15-15.48-33.69L-15.48-33.69Q-15.23-33.94-15.16-34.35-15.09-34.77-14.99-35.11L-14.99-35.11Q-13.53-35.74-12.04-36.33-10.55-36.91-9.18-37.74L-9.18-37.74Q-9.03-37.7-8.74-37.7L-8.74-37.7Q-8.25-37.7-7.86-37.84-7.47-37.99-7.08-38.18-6.69-38.38-6.3-38.53-5.91-38.67-5.37-38.62L-5.37-38.62Q-3.71-39.55-1.86-40.14 0-40.72 1.66-41.75L1.66-41.75Q1.9-41.75 2.08-41.65 2.25-41.55 2.44-41.55L2.44-41.55Q2.64-41.55 2.69-41.6L2.69-41.6Q2.98-41.99 3.47-42.16 3.96-42.33 4.47-42.46 4.98-42.58 5.44-42.8 5.91-43.02 6.05-43.51L6.05-43.51Q6.3-43.31 6.79-43.31L6.79-43.31Q7.62-43.31 8.33-43.65 9.03-43.99 9.86-43.99L9.86-43.99Q10.06-43.99 10.23-43.92 10.4-43.85 10.6-43.85L10.6-43.85Q10.99-43.85 11.01-44.09 11.04-44.34 11.28-44.53L11.28-44.53Q14.26-45.07 17.21-45.51 20.17-45.95 23.19-45.95L23.19-45.95Q23.63-46.24 24.17-46.24L24.17-46.24Q24.71-46.24 25.15-45.95L25.15-45.95Q25.98-46.04 26.81-46.09 27.64-46.14 28.47-46.14L28.47-46.14Q30.37-46.14 32.37-45.9 34.38-45.65 36.35-45.14 38.33-44.63 40.14-43.77 41.94-42.92 43.51-41.75L43.51-41.75Q43.65-41.31 43.9-40.87 44.14-40.43 44.53-40.19L44.53-40.19Q44.53-40.09 44.51-40.04 44.48-39.99 44.48-39.89L44.48-39.89Q44.48-39.36 44.8-38.87 45.12-38.38 45.12-37.7L45.12-37.7Q45.12-37.01 44.9-36.33 44.68-35.64 44.73-34.96L44.73-34.96Q44.19-34.18 43.82-33.54 43.46-32.91 43.36-31.93L43.36-31.93Q42.48-31.05 41.8-30 41.11-28.96 40.41-27.95 39.7-26.95 38.82-26.12 37.94-25.29 36.72-24.8L36.72-24.8Q36.67-24.32 36.33-23.73L36.33-23.73 35.3-23.73Q35.16-23.34 34.81-23.14L34.81-23.14 34.13-22.75Q33.79-22.56 33.57-22.27 33.35-21.97 33.35-21.44L33.35-21.44Q33.25-21.48 33.11-21.48L33.11-21.48Q32.62-21.48 31.96-21 31.3-20.51 30.91-20.21L30.91-20.21Q30.08-19.63 29.22-19.14 28.37-18.65 27.73-17.77L27.73-17.77Q25.78-16.94 24.02-15.84 22.27-14.75 20.21-14.11L20.21-14.11Q19.43-13.28 18.38-12.82 17.33-12.35 16.36-11.82L16.36-11.82 16.36-11.67Q16.36-11.28 16.65-10.91 16.94-10.55 17.33-10.28 17.72-10.01 18.19-9.91 18.65-9.81 18.99-9.91L18.99-9.91Q19.97-9.03 21.24-8.5 22.51-7.96 23.88-7.52 25.24-7.08 26.56-6.59 27.88-6.1 29-5.37L29-5.37 30.18-5.37Q31.3-4.39 32.84-3.91 34.38-3.42 35.79-3.03L35.79-3.03Q36.38-2.49 37.28-2.22 38.18-1.95 39.01-1.95L39.01-1.95 39.31-1.95Q39.5-1.95 39.65-2L39.65-2 39.65-1.9Q39.65-1.66 39.79-1.59 39.94-1.51 40.11-1.49 40.28-1.46 40.45-1.39 40.63-1.32 40.72-1.17L40.72-1.17 41.21-1.17Q42.24-1.17 43.16-0.76 44.09-0.34 45.12-0.34L45.12-0.34Q45.56-0.34 45.8-0.44L45.8-0.44Q46.09-0.34 46.24-0.05 46.39 0.24 46.63 0.44L46.63 0.44Q46.97 0.39 47.27 0.37 47.56 0.34 47.85 0.34L47.85 0.34Q48.93 0.34 49.85 0.59 50.78 0.83 51.76 1.32L51.76 1.32Q53.32 0.63 54.83 0.2 56.35-0.24 58.06-0.24L58.06-0.24 58.06-0.15Q58.06 0.44 58.37 0.95 58.69 1.46 58.94 2ZM40.23-36.96L40.23-36.96Q40.23-37.55 40.01-37.89 39.79-38.23 39.45-38.5 39.11-38.77 38.75-39.01 38.38-39.26 38.09-39.65L38.09-39.65Q36.82-40.04 35.6-40.53 34.38-41.02 33.11-41.36L33.11-41.36Q32.47-41.5 31.84-41.63 31.2-41.75 30.57-41.75L30.57-41.75 29.49-41.75Q29.2-41.8 28.88-41.87 28.56-41.94 28.27-41.99L28.27-41.99Q27.59-42.09 26.93-42.14 26.27-42.19 25.59-42.19L25.59-42.19Q24.32-42.19 23.05-42.09L23.05-42.09 20.51-41.89Q19.97-41.85 19.38-41.85 18.8-41.85 18.31-41.75L18.31-41.75Q18.07-41.7 17.63-41.53 17.19-41.36 16.7-41.19 16.21-41.02 15.75-40.82 15.28-40.63 14.94-40.53L14.94-40.53Q14.99-40.19 14.99-39.84L14.99-39.84 14.99-39.21Q14.99-38.48 14.94-37.74 14.89-37.01 14.75-36.28L14.75-36.28Q14.7-35.99 14.6-35.69 14.5-35.4 14.45-35.11L14.45-35.11Q14.36-34.67 14.36-34.13L14.36-34.13 14.36-33.2Q14.26-32.08 14.21-31.01 14.16-29.93 14.06-28.81L14.06-28.81Q13.77-25.59 13.45-22.41 13.13-19.24 13.04-16.02L13.04-16.02Q14.65-16.36 16.11-17.04 17.58-17.72 18.99-18.53 20.41-19.34 21.83-20.12 23.24-20.9 24.8-21.44L24.8-21.44Q25.2-21.97 25.76-22.31 26.32-22.66 26.71-23.19L26.71-23.19Q27.2-23.19 27.44-23.41 27.69-23.63 28.08-23.73L28.08-23.73Q30.42-25.78 32.86-27.59 35.3-29.39 37.55-31.45L37.55-31.45Q37.74-32.13 38.21-32.79 38.67-33.45 39.11-34.13 39.55-34.81 39.89-35.5 40.23-36.18 40.23-36.96Z" opacity="1" transform="matrix(1,0,0,1,0,0)" fill="#000000" class="wordmark-text-0" data-fill-palette-color="primary" id="text-0"></path></svg></g></svg></g><g transform="matrix(1,0,0,1,0,187.66783680256628)"><svg viewBox="0 0 187.202295648 25.04956447053438" height="25.04956447053438" width="187.202295648"><g transform="matrix(1,0,0,1,0,0)"><svg width="187.202295648" viewBox="5.420000076293945 -40.5 399.3599853515625 53.44000244140625" height="25.04956447053438" data-palette-color="#ffffff"><path d="M5.42 0L5.42-38.16 24.83-38.16Q29.22-38.16 32.45-37.24 35.67-36.33 37.79-34.59 39.92-32.86 40.95-30.37 41.99-27.88 41.99-24.73L41.99-24.73Q41.99-22.61 41.48-20.69 40.97-18.77 39.9-17.16 38.84-15.55 37.23-14.29 35.62-13.04 33.45-12.21L33.45-12.21 41.75 0 32.28 0 25.1-10.84 24.88-10.84 13.16-10.86 13.16 0 5.42 0ZM13.16-17.55L25.02-17.55Q27.22-17.55 28.87-18.07 30.52-18.58 31.63-19.51 32.74-20.43 33.29-21.77 33.84-23.1 33.84-24.73L33.84-24.73Q33.84-27.93 31.64-29.68 29.44-31.42 25.02-31.42L25.02-31.42 13.16-31.42 13.16-17.55ZM48.87-14.5L48.87-14.5Q48.87-17.43 50.07-20.1 51.27-22.78 53.51-24.83 55.76-26.88 59.02-28.1 62.28-29.32 66.43-29.32L66.43-29.32Q70.55-29.32 73.86-28.09 77.17-26.86 79.48-24.71 81.78-22.56 83.02-19.65 84.25-16.75 84.25-13.43L84.25-13.43Q84.25-13.01 84.24-12.54 84.23-12.06 84.18-11.67L84.18-11.67 56.93-11.67Q57.39-10.38 58.43-9.3 59.47-8.23 61.03-7.45 62.6-6.67 64.65-6.24 66.7-5.81 69.19-5.81L69.19-5.81Q71.68-5.81 74.14-6.34 76.61-6.86 78.85-7.67L78.85-7.67 81.3-2.15Q79.88-1.49 78.43-0.99 76.98-0.49 75.4-0.16 73.83 0.17 72.1 0.34 70.38 0.51 68.48 0.51L68.48 0.51Q63.62 0.51 59.96-0.66 56.3-1.83 53.83-3.86 51.36-5.88 50.12-8.62 48.87-11.35 48.87-14.5ZM56.93-17.31L76.58-17.31Q76.19-18.51 75.38-19.54 74.56-20.58 73.34-21.35 72.12-22.12 70.51-22.56 68.89-23 66.97-23L66.97-23Q64.91-23 63.23-22.53 61.55-22.07 60.28-21.29 59.01-20.51 58.16-19.48 57.32-18.46 56.93-17.31L56.93-17.31ZM93.84 10.99L96.53 4.88Q97.9 5.37 99.31 5.7 100.73 6.03 102.06 6.24 103.39 6.45 104.61 6.53 105.83 6.62 106.78 6.62L106.78 6.62Q109.66 6.62 111.8 5.92 113.94 5.22 115.36 4.05 116.79 2.88 117.5 1.33 118.21-0.22 118.21-1.95L118.21-1.95 118.21-3.2Q117.28-2.56 116.04-1.98 114.79-1.39 113.3-0.95 111.81-0.51 110.14-0.24 108.47 0.02 106.68 0.02L106.68 0.02Q103.14 0.02 100.14-1.04 97.14-2.1 94.94-4.02 92.74-5.93 91.51-8.62 90.28-11.3 90.28-14.58L90.28-14.58Q90.28-17.92 91.57-20.64 92.87-23.36 95.15-25.29 97.43-27.22 100.56-28.27 103.68-29.32 107.34-29.32L107.34-29.32Q108.91-29.32 110.44-29.13 111.98-28.93 113.39-28.59 114.79-28.25 116.02-27.77 117.26-27.29 118.21-26.73L118.21-26.73 118.21-28.81 125.43-28.81 125.43-3.3Q125.43 0.63 124.24 3.66 123.04 6.69 120.73 8.75 118.43 10.82 115.01 11.88 111.59 12.94 107.17 12.94L107.17 12.94Q105.59 12.94 103.88 12.81 102.17 12.67 100.45 12.41 98.73 12.16 97.05 11.8 95.38 11.45 93.84 10.99L93.84 10.99ZM97.87-14.65L97.87-14.65Q97.87-12.92 98.57-11.39 99.26-9.86 100.56-8.73 101.85-7.59 103.68-6.95 105.51-6.3 107.81-6.3L107.81-6.3Q109.3-6.3 110.77-6.58 112.25-6.86 113.61-7.37 114.96-7.89 116.14-8.62 117.33-9.35 118.21-10.25L118.21-10.25 118.21-19.75Q117.11-20.63 115.89-21.24 114.67-21.85 113.4-22.24 112.13-22.63 110.83-22.81 109.54-23 108.32-23L108.32-23Q105.83-23 103.89-22.34 101.95-21.68 100.62-20.54 99.29-19.41 98.58-17.9 97.87-16.38 97.87-14.65ZM132.29-9.08L132.29-9.08Q132.29-11.16 133.2-12.87 134.1-14.58 135.91-15.81 137.71-17.04 140.41-17.71 143.11-18.38 146.7-18.38L146.7-18.38Q149.36-18.38 152.3-17.99 155.24-17.6 158.37-16.8L158.37-16.8Q158.24-18.16 157.54-19.32 156.83-20.48 155.57-21.33 154.31-22.17 152.54-22.63 150.77-23.1 148.53-23.1L148.53-23.1Q147.31-23.1 145.84-22.95 144.38-22.8 142.81-22.51 141.25-22.22 139.73-21.78 138.2-21.34 136.88-20.73L136.88-20.73 134.68-26.66Q136.32-27.25 138.19-27.73 140.06-28.22 142.01-28.58 143.96-28.93 145.92-29.13 147.87-29.32 149.7-29.32L149.7-29.32Q157.78-29.32 161.71-25.2 165.64-21.07 165.64-12.55L165.64-12.55 165.64 0 158.42 0 158.42-2.71Q157.29-2.05 155.96-1.46 154.63-0.88 153.07-0.44 151.51 0 149.71 0.26 147.92 0.51 145.92 0.51L145.92 0.51Q142.55 0.51 139.99-0.22 137.44-0.95 135.73-2.25 134.03-3.54 133.16-5.29 132.29-7.03 132.29-9.08ZM139.91-9.33L139.91-9.33Q139.91-8.62 140.28-7.97 140.64-7.32 141.45-6.82 142.25-6.32 143.51-6.02 144.77-5.71 146.55-5.71L146.55-5.71Q148.45-5.71 150.24-6.05 152.02-6.4 153.56-6.96 155.1-7.52 156.34-8.25 157.59-8.98 158.42-9.77L158.42-9.77 158.42-11.04Q156.76-11.5 155.13-11.82 153.51-12.13 152.03-12.32 150.55-12.5 149.25-12.57 147.94-12.65 146.97-12.65L146.97-12.65Q144.94-12.65 143.6-12.38 142.25-12.11 141.42-11.66 140.59-11.21 140.25-10.6 139.91-9.99 139.91-9.33ZM175.38 0L175.38-40.5 182.61-40.5 182.61 0 175.38 0ZM209.36 0L209.36-38.16 241.86-38.16 241.86-31.37 217.1-31.37 217.1-23.75 239.02-23.75 239.02-17.38 217.1-17.38 217.1-6.76 242.37-6.76 242.37 0 209.36 0ZM254.4 0L254.4-23.39 247.44-23.39 247.44-28.81 254.4-28.81 254.4-37.77 261.63-37.77 261.63-28.81 268.59-28.81 268.59-23.39 261.63-23.39 261.63 0 254.4 0ZM275 0L275-40.48 282.23-40.48 282.23-26.61Q284.5-27.86 287.3-28.59 290.09-29.32 293.17-29.32L293.17-29.32Q296.73-29.32 299.58-28.27 302.42-27.22 304.4-25.26 306.38-23.29 307.44-20.48 308.5-17.68 308.5-14.16L308.5-14.16 308.5 0 301.3 0 301.3-13.87Q301.3-15.92 300.64-17.61 299.98-19.31 298.71-20.53 297.44-21.75 295.62-22.42 293.8-23.1 291.51-23.1L291.51-23.1Q288.75-23.1 286.38-22.22 284.01-21.34 282.23-20L282.23-20 282.23 0 275 0ZM316.58 0L316.58-28.81 323.81-28.81 323.81-26.37Q326.69-28 329.31-28.66 331.94-29.32 334.45-29.32L334.45-29.32Q337.75-29.32 340.55-28.36 343.36-27.39 345.41-25.49 347.46-23.58 348.62-20.74 349.78-17.9 349.78-14.16L349.78-14.16 349.78 0 342.58 0 342.58-12.99Q342.58-15.36 341.91-17.22 341.24-19.09 339.98-20.37 338.72-21.66 336.93-22.33 335.13-23 332.91-23L332.91-23Q331.74-23 330.51-22.75 329.27-22.51 328.09-22.06 326.91-21.61 325.81-20.94 324.71-20.26 323.81-19.41L323.81-19.41 323.81 0 316.58 0ZM362.45-32.74L362.45-32.74Q361.38-32.74 360.51-33.04 359.64-33.35 359.03-33.87 358.42-34.4 358.09-35.1 357.76-35.79 357.76-36.57L357.76-36.57Q357.76-37.38 358.09-38.07 358.42-38.77 359.03-39.28 359.64-39.79 360.51-40.1 361.38-40.41 362.45-40.41L362.45-40.41Q363.55-40.41 364.42-40.1 365.28-39.79 365.89-39.28 366.5-38.77 366.83-38.07 367.16-37.38 367.16-36.57L367.16-36.57Q367.16-35.79 366.83-35.1 366.5-34.4 365.89-33.87 365.28-33.35 364.42-33.04 363.55-32.74 362.45-32.74ZM358.84 0L358.84-28.81 366.06-28.81 366.06 0 358.84 0ZM373.58-14.33L373.58-14.33Q373.58-17.5 374.74-20.25 375.9-23 378.13-25.01 380.37-27.03 383.6-28.17 386.84-29.32 390.99-29.32L390.99-29.32Q392.79-29.32 394.63-29.1 396.46-28.88 398.15-28.48 399.85-28.08 401.34-27.53 402.83-26.98 403.93-26.32L403.93-26.32 400.58-20.87Q398.21-21.97 396.1-22.49 393.99-23 391.82-23L391.82-23Q389.33-23 387.35-22.35 385.37-21.7 383.99-20.54 382.61-19.38 381.89-17.81 381.17-16.24 381.17-14.38L381.17-14.38Q381.17-12.52 381.94-10.95 382.71-9.38 384.12-8.24 385.52-7.1 387.51-6.46 389.5-5.81 391.94-5.81L391.94-5.81Q394.63-5.81 397.01-6.57 399.39-7.32 401.44-8.59L401.44-8.59 404.78-3.15Q403.49-2.37 401.97-1.7 400.46-1.03 398.74-0.54 397.02-0.05 395.13 0.23 393.23 0.51 391.21 0.51L391.21 0.51Q387.08 0.51 383.81-0.61 380.54-1.73 378.27-3.72 376-5.71 374.79-8.42 373.58-11.13 373.58-14.33Z" opacity="1" transform="matrix(1,0,0,1,0,0)" fill="#000000" class="slogan-text-1" data-fill-palette-color="secondary" id="text-1"></path></svg></g></svg></g></svg></g></svg></g><g transform="matrix(1,0,0,1,35.755638468768,0)"><svg viewBox="0 0 115.691018710464 115.691018710464" height="115.691018710464" width="115.691018710464"><g><svg xmlns="http://www.w3.org/2000/svg" xmlns:xlink="http://www.w3.org/1999/xlink" version="1.1" x="0" y="0" viewBox="5.92578125 5.86181640625 88.1796875 88.1796875" style="enable-background:new 0 0 100 100;" xml:space="preserve" height="115.691018710464" width="115.691018710464" class="icon-icon-0" data-fill-palette-color="accent" id="icon-0"><path d="M92.605 48.436H66.634v-3.437h2.167c0.828 0 1.5-0.671 1.5-1.5s-0.672-1.5-1.5-1.5h-3.667c-0.828 0-1.5 0.671-1.5 1.5v4.937h-4.126C58.835 44.362 55.591 41.155 51.5 40.536v-4.203h5.042c0.828 0 1.5-0.671 1.5-1.5v-3.666c0-0.829-0.672-1.5-1.5-1.5s-1.5 0.671-1.5 1.5v2.166H51.5v-8.471h18.167c0.828 0 1.5-0.671 1.5-1.5s-0.672-1.5-1.5-1.5H51.5v-5h18.167c0.828 0 1.5-0.671 1.5-1.5s-0.672-1.5-1.5-1.5H51.5v-5h18.167c0.828 0 1.5-0.671 1.5-1.5s-0.672-1.5-1.5-1.5H50c-0.828 0-1.5 0.671-1.5 1.5v25.971h-3.438v-2.166c0-0.829-0.672-1.5-1.499-1.5s-1.5 0.671-1.5 1.5v3.666c0 0.829 0.672 1.5 1.5 1.5H48.5v4.222c-4.042 0.668-7.231 3.866-7.886 7.912h-4.217V43.425c0-0.829-0.672-1.5-1.5-1.5h-3.667c-0.828 0-1.5 0.671-1.5 1.5s0.672 1.5 1.5 1.5h2.167v3.542h-8.471V30.3c0-0.829-0.672-1.5-1.5-1.5s-1.5 0.671-1.5 1.5v18.167h-5V30.3c0-0.829-0.672-1.5-1.5-1.5s-1.5 0.671-1.5 1.5v18.167h-5V30.3c0-0.829-0.672-1.5-1.5-1.5s-1.5 0.671-1.5 1.5v19.667c0 0.829 0.672 1.5 1.5 1.5h25.971v3.438h-2.167c-0.828 0-1.5 0.671-1.5 1.5s0.672 1.5 1.5 1.5h3.667c0.828 0 1.5-0.671 1.5-1.5v-4.938h4.207c0.632 4.087 3.849 7.323 7.927 7.983v4.12h-5.042c-0.828 0-1.5 0.671-1.5 1.5v3.667c0 0.829 0.672 1.5 1.5 1.5s1.5-0.671 1.5-1.5v-2.167H48.531v8.472H30.364c-0.828 0-1.5 0.671-1.5 1.5s0.672 1.5 1.5 1.5H48.531v5H30.364c-0.828 0-1.5 0.671-1.5 1.5s0.672 1.5 1.5 1.5H48.531v5H30.364c-0.828 0-1.5 0.671-1.5 1.5s0.672 1.5 1.5 1.5H50.031c0.828 0 1.5-0.671 1.5-1.5V66.57h3.438v2.167c0 0.829 0.672 1.5 1.5 1.5s1.5-0.671 1.5-1.5v-3.667c0-0.829-0.672-1.5-1.5-1.5h-4.938v-4.11c4.119-0.638 7.373-3.9 7.997-8.024h4.106v5.042c0 0.829 0.672 1.5 1.5 1.5h3.667c0.828 0 1.5-0.671 1.5-1.5s-0.672-1.5-1.5-1.5h-2.167v-3.542h8.471v18.167c0 0.829 0.672 1.5 1.5 1.5s1.5-0.671 1.5-1.5V51.436h5v18.167c0 0.829 0.672 1.5 1.5 1.5s1.5-0.671 1.5-1.5V51.436h5v18.167c0 0.829 0.672 1.5 1.5 1.5s1.5-0.671 1.5-1.5V49.936C94.105 49.107 93.434 48.436 92.605 48.436zM56.452 48.436H51.5v-4.857C53.935 44.123 55.86 46.019 56.452 48.436zM48.5 43.611v4.856h-4.833C44.24 46.078 46.115 44.195 48.5 43.611zM43.65 51.467H48.531v4.93C46.109 55.816 44.206 53.898 43.65 51.467zM51.531 56.413v-4.977h4.954C55.933 53.904 53.995 55.85 51.531 56.413z" fill="#000000" data-fill-palette-color="accent"></path></svg></g></svg></g><g></g></svg></g></svg></g></svg></g><path d="M0 41.215L0 1 78.514 1 78.514 41.215 72.772 41.215 72.772 6.742 5.742 6.742 5.742 41.215 0 41.215M0 205.985L0 246.2 78.514 246.2 78.514 205.985 72.772 205.985 72.772 240.458 5.742 240.458 5.742 205.985 0 205.985" fill="#000000" stroke="transparent" data-fill-palette-color="primary"></path></svg></g><defs></defs></svg><rect width="78.51409510109298" height="247.2" fill="none" stroke="none" visibility="hidden"></rect></g></svg></g></svg>